<svg xmlns="http://www.w3.org/2000/svg" height="256" width="256" viewBox="0 0 256 256">
    <g>
        <path id="path1" transform="rotate(0,128,128) translate(0.572219848632813,0) scale(8,8)  " fill="#DC3545" d="M27.949952,19.334853C27.748952,19.73485 27.548952,20.035848 27.047954,20.135847 27.248953,20.636843 26.947953,21.03784 27.147953,21.538836 28.049952,21.437837 28.450951,19.835849 27.949952,19.334853z M7.8139868,14.425891C7.6129875,14.425891 7.4129877,14.52589 7.5129871,14.725888 7.9139872,14.826888 8.0139866,14.625889 8.3149862,14.826888 8.3149862,14.52589 8.0139866,14.425891 7.8139868,14.425891z M6.0109901,13.924894C5.9099903,13.924894 5.7099905,14.024894 5.6099911,14.124893 6.21099,13.724896 6.611989,14.52589 7.1129885,14.325891 6.9119883,14.325891 6.4109898,13.924894 6.0109901,13.924894z M18.432969,8.5149355C18.131969,8.5149355 17.931969,8.8159332 17.93197,9.1159315 18.231969,9.3169298 18.732968,9.1159315 18.732968,8.7159348 18.532968,8.5149355 18.532968,8.5149355 18.432969,8.5149355z M15.426974,6.7119493C15.426974,7.4129438 16.729971,7.2129459 16.929971,6.8119488 16.528972,6.7119493 16.027973,6.9119482 15.426974,6.7119493z M5.1089916,5.6099577L5.1089916,5.6752281 4.9996147,5.6703053C4.9396353,5.6657009,4.8800974,5.6592865,4.8210735,5.6512794L4.8027849,5.6483021 4.8076506,5.6468716C4.8974447,5.6240206,4.9961166,5.6099577,5.1089916,5.6099577z M3.4059944,5.2089615C3.7564945,5.3594599,4.1822433,5.5349579,4.6456175,5.6227074L4.8027849,5.6483021 4.7206173,5.6724567C4.6079931,5.7099571 4.5079937,5.7599564 4.4079933,5.8099566 4.4079933,6.0109549 4.5079927,6.0109549 4.5079927,6.2109537 4.9089918,6.3109522 5.0089922,6.1109543 5.3089914,6.4109516 5.208992,6.5119514 5.1089916,6.7119493 4.807992,6.7119493L4.807992,6.4109516C4.2069931,6.8119488 4.2069931,5.8099566 3.7059946,6.1109543 3.7059946,6.3109522 4.0069933,6.7119493 3.7059946,6.8119488L3.4059944,6.8119488C3.4059944,6.5119514 3.4059944,6.3109522 3.1049957,6.4109516 2.8049955,6.4109516 3.305995,6.5119514 3.2049952,6.7119493 3.0049953,6.8119488 2.4039965,6.8119488 2.1039972,6.7119493 2.2039967,6.6119499 2.2039967,6.5119514 2.303997,6.4109516L2.6039963,6.4109516C2.6039963,6.4109516 2.5039959,6.3109522 2.4039965,6.3109522 2.5039959,6.2109537 2.6039963,6.1109543 2.7049961,6.0109549 2.8049955,6.0109549 2.9049959,6.0109549 3.1049957,6.2109537 3.305995,6.2109537 3.305995,6.0109549 3.305995,5.8099566L2.8049955,5.8099566C2.9049959,5.7099571 3.0049953,5.6099577 3.1049957,5.5099583 3.2049952,5.4099598 3.305995,5.3099604 3.4059944,5.2089615z M12.521979,3.0049782C12.02098,3.0049782 11.62098,3.105978 11.319981,3.305975 11.018981,3.5059738 11.119981,3.906971 10.718982,3.5059738 10.718982,3.7069721 10.718982,4.0069695 10.518982,4.0069695 8.9159851,3.5059738 8.514986,4.8089638 7.4129877,5.0089626 8.0139866,5.6099577 9.8169837,4.6079655 10.017983,6.1109543 10.317983,6.2109537 10.217983,5.8099566 10.518982,5.9109554 10.518982,6.0109549 10.918982,6.3109522 10.618982,6.4109516 10.618982,6.3109522 10.618982,6.1109543 10.417983,6.1109543 10.317983,6.1109543 10.217983,6.2109537 10.217983,6.4109516 10.417983,7.0129471 11.119981,8.0139399 12.02098,7.813941 12.221979,6.5119514 13.823977,6.9119482 14.825974,6.2109537 14.725975,6.2109537 14.625975,6.1109543 14.525975,6.0109549 14.825975,5.7099571 14.825975,6.3109522 15.226974,6.2109537 15.326974,5.9109554 15.026974,5.9109554 15.126974,5.6099577 15.326974,5.6099577 15.627973,5.6099577 15.727973,5.5099583 15.727973,5.0089626 15.827973,5.0089626 15.627974,4.7079639 15.827973,4.2079678 16.528972,4.3079681 16.629972,3.7069721 16.027973,3.6059742 16.027973,4.0069695 15.527974,4.0069695 15.126974,3.906971 15.126974,3.305975 14.825974,3.0049782 14.425976,3.0049782 13.523977,3.4059753 13.022978,3.2059765 13.323977,3.2059765 13.723977,3.105978 13.924976,3.0049782z M16.328972,0C21.437963,0 25.945955,2.0039864 28.85095,5.1089611 28.550951,5.2089615 28.249951,5.4099598 28.049952,5.6099577 28.450951,5.6099577 28.550951,5.8099566 29.05195,5.8099566 29.15195,5.5099583 28.95195,5.6099577 28.95195,5.3099604 29.15195,5.5099583 29.35195,5.7099571 29.552949,6.0109549 28.750951,6.0109549 27.949952,6.2109537 27.147953,6.4109516 27.147953,6.1109543 27.348953,6.2109537 27.147953,6.0109549 26.847954,5.9109554 26.847954,6.3109522 26.847954,6.6119499 26.446955,6.1109543 25.645956,7.4129438 25.244957,6.5119514 25.745955,6.5119514 26.246955,6.5119514 26.446955,6.3109522 25.144957,5.9109554 23.54196,5.5099583 22.038962,6.1109543 21.638963,6.7119493 21.036964,7.0129471 20.335965,7.3129454 20.335965,7.6139431 20.435965,7.7139416 20.435965,8.0139399 21.137964,8.2149382 21.036964,8.0139399 21.437963,7.813941 21.537963,7.9139404 21.537963,8.3149376 21.638963,8.414937 22.339962,8.414937 22.539961,8.0139399 22.739961,7.5129433 22.539961,7.5129433 22.439961,7.4129438 22.439961,7.3129454 23.04096,7.3129454 23.24096,6.4109516 23.841959,6.7119493 23.641959,7.0129471 23.04096,6.9119482 23.14096,7.4129438 23.34196,7.9139404 24.342958,7.1129465 24.443958,7.813941 24.142959,7.9139404 23.641959,7.7139416 23.54196,7.9139404 23.741959,8.1149387 22.840961,8.1149387 22.94096,8.6149349 22.339962,8.6149349 21.537963,8.9159327 21.137964,8.2149382 21.036964,8.7159348 20.536965,8.8159332 19.934966,9.1159315 19.734966,8.6149349 19.133967,8.6149349 19.133967,8.0139399 18.832968,7.9139404 18.632968,8.1149387 18.332969,8.2149382 18.532968,8.5149355 18.832968,8.6149349 19.033967,8.8159332 18.933968,8.9159327 18.732968,8.9159327 18.732968,9.2159309 18.933968,9.5169277 19.734966,9.1159315 19.934966,9.3169298 19.734966,9.7169266 19.033967,9.4169292 18.833968,9.8179255 19.033967,9.8179255 19.233967,9.8179255 19.333967,10.017924L19.333967,10.518921 18.031969,10.518921C18.031969,10.919917 18.031969,11.119916 17.93197,11.419913 19.233967,12.521905 19.734966,10.317922 21.237964,10.418921 21.337964,11.019917 22.239962,10.818918 22.439961,11.319915 22.339962,11.019917 22.539961,11.019917 22.539961,10.818918 22.138962,10.818918 21.638963,10.317922 21.738963,10.117924 22.539961,10.317922 22.840961,11.119916 23.44196,11.520913 23.44196,11.419913 23.54196,11.419913 23.641959,11.419913 23.841959,11.219915 23.44196,11.219915 23.54196,10.919917 23.741959,10.919917 23.741959,10.718919 24.042959,10.818918 23.942959,11.92091 25.144957,11.419913 25.645956,11.520913 25.645956,11.92091 25.444956,12.221908 25.144957,12.421906 24.843957,12.221908 24.342958,12.421906 24.142959,12.622905 24.142959,12.421906 24.443958,12.521905 24.342958,12.221908 23.04096,12.121908 22.239962,12.722903 21.337964,11.92091 21.537963,11.720911 21.337964,11.520913 21.237964,11.319915 19.834966,11.720911 18.231969,11.319915 17.93197,12.722903 16.729971,13.1239 16.929971,14.52589 16.829971,15.627882 17.53097,15.82788 17.73197,16.529875 18.231969,16.829873 18.833968,16.529875 19.734966,16.629874 20.335965,16.328876 20.435965,16.428875 20.636965,16.629874 20.736964,16.829873 21.036964,16.729873 21.237964,16.529875 21.437963,16.829873 21.337964,17.13087 21.237964,17.430868 21.137964,17.731865 21.738963,18.131862 21.938962,18.733858 22.038962,19.334853 21.137964,20.436845 22.739961,21.838834 22.94096,23.040825 24.743958,23.241823 25.044957,22.038833 25.745955,21.237839 25.745955,21.03784 25.544956,20.836842 25.645956,20.536844 26.546954,20.235846 26.646955,19.033856 26.146955,18.131863 26.747954,17.13087 27.949952,16.729873 28.149952,15.427883 27.548952,15.326884 27.448953,15.727881 26.847954,15.727881 26.446955,14.725888 25.344956,13.824895 25.344956,12.722903 25.945955,13.423898 26.546954,14.224892 26.847954,15.226885 27.949952,14.926887 29.15195,14.625889 29.45295,13.623897 29.45295,13.323899 29.05195,13.423898 28.95195,13.1239 28.550951,13.1239 28.550951,13.423898 28.249951,13.423898 28.149952,13.022902 27.248953,12.622905 27.748952,12.221908 28.350951,13.523898 30.654947,12.421906 31.155947,13.724896 31.355946,14.024894 31.555945,13.423898 31.655946,13.724896 31.555945,14.224892 31.756946,14.52589 31.856945,14.725888 30.854947,21.13784 24.242959,26.2468 16.128973,26.3468 14.925975,26.3468 13.824976,26.2468 12.722979,26.146801 10.918982,27.64979 7.0119886,30.854765 6.1109896,31.656759 4.807992,32.758751 5.208992,30.854765 5.208992,30.854765L6.4109898,23.842819C2.6039963,21.538836,0.10000038,17.831865,0,13.523898L0,12.622905C0.39999962,13.2239 0.80099869,13.724896 1.4019985,13.924894 1.2019987,13.523898 0.20000076,13.022902 0.60099983,12.622905 1.6029978,13.523898 2.4039965,15.427883 4.0069933,15.026886 4.0069933,15.527882 4.7079926,15.226885 5.208992,15.627882 5.3089914,15.727881 5.3089914,16.028879 5.4089909,16.128878 5.8099909,16.629874 6.3109894,16.629874 6.5109892,16.328876 7.0119886,16.729873 6.8119888,17.631866 6.21099,17.831865 6.3109894,18.232862 6.3109894,18.332861 6.1109896,18.733858 6.8119888,19.334853 7.0119886,20.436845 8.0139866,20.836842 8.3149862,22.43983 7.2129879,23.441822 7.6129875,24.94481 6.9119883,25.745804 7.4129877,27.148794 8.9159851,26.847796 8.8159857,26.446799 8.3149862,26.647798 8.3149862,26.146801 8.4149857,25.845804 8.7149858,25.845804 8.9159851,25.645805 9.0159845,25.344808 8.6149855,25.545806 8.6149855,25.244808 9.0159845,24.843811 9.3159842,24.743812 9.0159845,24.242816 9.4169841,24.242816 10.818982,23.842819 10.217983,23.140824 11.018981,23.541821 11.72098,22.539829 11.82098,21.638836 12.221979,21.538836 12.521979,21.237839 13.022978,21.237839 13.222978,20.235846 13.723977,19.434852 14.024976,18.532859 13.222978,18.131862 12.221979,17.430868 11.419981,18.031863 11.419981,17.831865 11.72098,17.931864 11.62098,17.631866 11.319981,17.530867 11.119981,17.931864 11.018981,17.631866 11.219981,17.631866 11.419981,17.530867 11.51998,17.330869 11.119981,16.529875 9.6169839,16.629874 9.516984,15.928879 9.0159845,15.82788 8.514986,16.028879 7.9139872,15.727881 7.7139874,15.82788 7.9139872,16.228877 7.6129875,16.128878 7.5129871,15.82788 7.7139874,15.82788 7.7139874,15.627882 7.2129879,15.627882 7.2129879,16.128878 6.7119894,16.228877 6.4109898,15.928879 6.3109894,16.128878 5.9099903,16.228877 5.6099911,16.028879 5.7099905,15.627882 5.7099905,15.126885 5.7099905,15.026886 5.1089916,15.326884 5.0089922,15.026886 4.9089918,14.625889 5.3089914,14.625889 5.208992,14.224892 5.0089922,14.024894 4.9089918,14.325891 4.5079927,14.224892 4.5079927,14.325891 4.5079927,14.625889 4.4079933,14.625889 3.4059944,15.026886 3.4059944,13.824895 3.4059944,13.2239 4.5079927,12.722903 5.7099905,12.521905 6.3109894,13.523898 6.5109892,13.2239 6.0109901,12.922902 6.0109901,12.521905 6.4109898,12.421906 6.611989,12.021909 7.0119886,11.92091 6.9119883,11.520913 7.2129879,10.919917 7.9139872,10.919917 7.9139872,10.718919 7.9139872,10.418921 8.113987,10.418921 8.4149857,10.518921 8.4149857,10.317922 8.6149855,10.317922L8.6149855,10.618919C8.9159851,10.418921 9.4169841,10.418921 9.7169838,10.217923 9.4169841,10.017924 9.2159848,10.017924 8.8159857,10.017924L8.8159857,9.6169271C8.514986,9.5169277 8.3149862,9.9179249 8.113987,9.6169271 8.4149857,9.6169271 8.4149857,9.3169298 8.7149858,9.3169298 8.9159851,9.5169277 9.0159845,9.6169271 9.2159848,9.6169271 9.4169841,9.4169292 9.7169838,9.4169292 10.017983,9.2159309 10.017983,9.5169277 9.7169838,9.5169277 9.7169838,9.8179255 10.217983,9.9179249 10.417983,9.8179255 10.718982,9.9179249 10.818982,9.4169292 10.217983,9.6169271 10.117983,9.3169298 10.117983,9.2159309 10.217983,9.1159315 10.317983,8.9159327 9.7169838,8.7159348 9.2159848,8.2149382 8.7149858,7.813941 8.514986,7.813941 8.514986,8.1149387 8.2139864,8.1149387 8.0139866,7.7139416 7.1129885,7.2129459 6.5109892,7.7139416 6.5109892,8.1149387 6.5109892,8.2149382 6.8119888,8.5149355 6.7119894,8.6149349 6.4109898,8.6149349 6.21099,8.7159348 6.4109898,8.7159348 6.5109892,9.1159315 6.3109894,9.2159309 6.0109901,9.2159309 5.9099903,8.9159327 5.8099909,8.6149349 5.0089922,8.6149349 4.1069937,8.5149355 3.8069944,7.9139404 4.6079931,7.1129465 5.3089914,7.2129459 6.21099,7.4129438 6.0109901,7.0129471 5.5099907,7.1129465 5.208992,6.9119482 5.4089909,6.8119488 5.6099911,6.9119482 6.0109901,6.8119488 6.1109896,6.5119514 5.8099909,6.6119499 5.8099909,6.4109516 6.21099,6.2109537 7.1129885,6.2109537 6.7119894,6.8119488 7.0119886,6.9119482 7.1129885,6.3109522 7.4129877,6.7119493 7.2129879,6.9119482 6.611989,6.9119482 6.5109892,7.2129459 7.3129883,7.2129459 8.0139866,7.6139431 8.8159857,7.5129433 8.9159851,7.0129471 8.3149862,7.3129454 8.4149857,6.9119482 8.6149855,7.0129471 9.2159848,7.2129459 9.3159842,6.8119488 7.9139872,6.4109516 6.611989,5.1089611 5.1089916,6.0109549L5.1089916,5.6752281 5.1808023,5.6784611C5.4847412,5.6822615 5.7978649,5.6352701 6.1109896,5.5099583 5.1089916,5.5099583 4.1069937,5.2089615 3.4059944,5.2089615 6.3109894,2.2039833 10.818982,0.19999886 15.827973,0.10000038 16.027973,0 16.228972,0 16.328972,0z" />
    </g>
</svg>